# xmcd
#
# Track frame offsets: 
#        150
#        20447
#        32000
#        47641
#        69619
#        82606
#        94283
#        106755
#        123514
#
# Disc length: 1828 seconds
#
# Revision: 0
# Processed by: cddbd v1.5.2PL0 Copyright (c) Steve Scherf et al.
# Submitted via: ExactAudioCopy v0.99pb4
#
DISCID=67072209
DTITLE=Aaron Tippin - Call of the Wild
DYEAR=1993
DGENRE=Corporate Country
TTITLE0=The Call of the Wild
TTITLE1=Nothin' in the World
TTITLE2=Working Man's Ph.D.
TTITLE3=I Promised You the World
TTITLE4=Honky-Tonk Superman
TTITLE5=Trim Youself to Fit the World
TTITLE6=Let's Talk About You
TTITLE7=Whole Lotta Love on the Line
TTITLE8=My Kind of Town
EXTD=
EXTT0=
EXTT1=
EXTT2=
EXTT3=
EXTT4=
EXTT5=
EXTT6=
EXTT7=
EXTT8=
PLAYORDER=
